<svg width="202" height="28" viewBox="0 0 202 28" fill="none" xmlns="http://www.w3.org/2000/svg">
<g clip-path="url(#clip0_109_4260)">
<path fill-rule="evenodd" clip-rule="evenodd" d="M8.21377 16.9919H0V0.0140877H8.21377V16.9919Z" fill="white"/>
<path fill-rule="evenodd" clip-rule="evenodd" d="M22.0869 16.9919H10.2214V0.0140877H22.0869V16.9919Z" fill="white"/>
<path fill-rule="evenodd" clip-rule="evenodd" d="M46.5468 16.9919H24.8245V0.0140877H46.5468V16.9919Z" fill="white"/>
<path fill-rule="evenodd" clip-rule="evenodd" d="M50.5166 16.9922V0.0146408H55.0341L66.1916 10.2382L77.418 0.0146408H81.7988V16.9922H76.5278V5.44595L66.5344 15.0985H65.2339L55.0341 5.10366V16.9922H50.5166Z" fill="white"/>
<path fill-rule="evenodd" clip-rule="evenodd" d="M84.0576 16.9922H89.5338L99.3907 3.39164L109.179 16.9922H115.134L102.129 0.0146408H96.9953L84.0576 16.9922Z" fill="white"/>
<path fill-rule="evenodd" clip-rule="evenodd" d="M117.53 0.0146904V16.9932H140.872V13.7294H122.869V0.0146904H117.53Z" fill="white"/>
<mask id="mask0_109_4260" style="mask-type:luminance" maskUnits="userSpaceOnUse" x="-15" y="-33" width="237" height="91">
<path d="M-14.8574 -32.288H221.388V57.3422H-14.8574V-32.288Z" fill="white"/>
</mask>
<g mask="url(#mask0_109_4260)">
<path fill-rule="evenodd" clip-rule="evenodd" d="M161.955 7.56783H151.345H148.744H148.674V3.25497H148.744H151.345H161.886C161.886 3.25497 163.666 3.66564 163.666 5.71964C163.666 7.77363 161.955 7.56783 161.955 7.56783ZM164.556 0.0144463H143.267V16.9929H148.674V10.3751H165.377C165.377 10.3751 168.731 10.1693 169.005 7.84171V2.63911C169.005 2.63911 168.389 0.0144463 164.556 0.0144463Z" fill="white"/>
<path fill-rule="evenodd" clip-rule="evenodd" d="M196.391 12.8126C196.399 13.5411 196.145 13.7352 195.444 13.7324C189.981 13.7085 184.517 13.7027 179.054 13.7373C178.228 13.7432 178.095 13.4251 178.103 12.7043C178.137 9.83638 178.146 6.96692 178.099 4.099C178.085 3.26868 178.314 3.00315 179.167 3.02048C181.852 3.07433 184.539 3.03998 187.225 3.03998C189.911 3.03998 192.598 3.06845 195.283 3.02234C196.09 3.00903 196.41 3.19781 196.395 4.07115C196.346 6.98456 196.357 9.89889 196.391 12.8126ZM201.97 3.44044C201.948 1.59225 201.034 0.579641 199.223 0.253454C198.553 0.132139 197.87 0.0154667 197.191 0.0136108C190.576 -0.00464821 183.961 -0.00279236 177.346 0.00865746C176.803 0.00896645 176.256 0.0934544 175.718 0.18475C173.254 0.601923 172.468 1.53159 172.459 4.05691C172.448 6.84096 172.456 9.62439 172.456 12.4075C172.457 15.7848 173.417 16.8606 176.798 16.9432C180.263 17.0289 183.732 16.9621 187.198 16.9621V17.0066C190.255 17.0066 193.311 17.0094 196.369 17.0038C197.371 17.0026 198.369 16.963 199.355 16.73C201.105 16.3168 201.949 15.3865 201.97 13.5699C202.01 10.1938 202.01 6.81651 201.97 3.44044Z" fill="white"/>
<path d="M7.207 24.769L6.90963 24.9992C6.55625 24.5563 6.10168 24.3354 5.54655 24.3354C5.09445 24.3354 4.70394 24.4957 4.37748 24.8172C4.05102 25.1385 3.88733 25.5327 3.88733 25.9991C3.88733 26.4649 4.047 26.8539 4.36696 27.1665C4.6863 27.4784 5.08672 27.635 5.56821 27.635C6.10508 27.635 6.55253 27.4246 6.90963 27.0028L7.207 27.233C7.01917 27.4837 6.78276 27.6737 6.49653 27.8043C6.21029 27.9346 5.89374 27.9993 5.54655 27.9993C4.94252 27.9993 4.44711 27.8065 4.06185 27.4205C3.6766 27.0352 3.48413 26.5478 3.48413 25.9586C3.48413 25.5943 3.57387 25.2573 3.75211 24.9488C3.93003 24.6399 4.17789 24.3982 4.49445 24.2224C4.81132 24.0479 5.15046 23.9603 5.51498 23.9603C5.87919 23.9603 6.20627 24.0302 6.49653 24.1692C6.78616 24.3085 7.0235 24.5087 7.207 24.769Z" fill="white"/>
<path d="M15.3458 25.9802C15.3458 25.5194 15.1883 25.1304 14.8715 24.8122C14.5546 24.4944 14.1743 24.3356 13.729 24.3356C13.2726 24.3356 12.892 24.4953 12.586 24.8144C12.2808 25.1347 12.128 25.5237 12.128 25.9827C12.128 26.4419 12.2846 26.83 12.5993 27.1478C12.9143 27.4657 13.2946 27.6247 13.7395 27.6247C14.1845 27.6247 14.5645 27.4694 14.877 27.1587C15.1899 26.8483 15.3458 26.4549 15.3458 25.9802ZM11.7297 25.9966C11.7297 25.6249 11.8179 25.2817 11.9955 24.9679C12.1713 24.6538 12.4136 24.4068 12.7218 24.2285C13.0288 24.05 13.3642 23.9605 13.7266 23.9605C14.0889 23.9605 14.4262 24.0487 14.739 24.2251C15.0522 24.4022 15.2979 24.6473 15.4764 24.9592C15.6541 25.2721 15.7438 25.6119 15.7438 25.9777C15.7438 26.3438 15.6553 26.683 15.4786 26.995C15.3022 27.3075 15.0587 27.5529 14.7496 27.7318C14.4407 27.9104 14.1047 27.9995 13.7423 27.9995C13.38 27.9995 13.043 27.9107 12.7317 27.7346C12.4216 27.5576 12.1763 27.3143 11.9974 27.003C11.8185 26.6926 11.7297 26.3565 11.7297 25.9966Z" fill="white"/>
<path d="M20.4316 27.903V24.0568H20.5161L23.0461 27.003V24.0568H23.4224V27.903H23.3379L20.8243 24.9945V27.903H20.4316Z" fill="white"/>
<path d="M27.8813 27.1855L28.205 26.9927C28.4312 27.4139 28.6946 27.6249 28.9953 27.6249C29.19 27.6249 29.3558 27.5621 29.4941 27.4374C29.6315 27.3123 29.7002 27.1567 29.7002 26.9713C29.7002 26.8249 29.6418 26.6764 29.5257 26.5266C29.4091 26.3771 29.2157 26.1988 28.9452 25.9934C28.6748 25.7885 28.4922 25.6344 28.399 25.5325C28.3047 25.4307 28.236 25.3221 28.1914 25.2061C28.1478 25.09 28.1261 24.973 28.1261 24.8554C28.1261 24.6054 28.2131 24.3937 28.3885 24.2201C28.563 24.0474 28.7831 23.9604 29.0482 23.9604C29.2565 23.9604 29.4388 24.0133 29.5947 24.1186C29.7504 24.2238 29.9004 24.3807 30.0453 24.5871L29.738 24.8282C29.6387 24.6926 29.5359 24.58 29.4304 24.4912C29.3243 24.4017 29.194 24.3568 29.0399 24.3568C28.8861 24.3568 28.7614 24.403 28.6636 24.4964C28.5661 24.5886 28.5185 24.7069 28.5185 24.8495C28.5185 24.9922 28.5615 25.1163 28.6481 25.2221C28.7348 25.3277 28.9307 25.4939 29.2364 25.7229C29.5418 25.9519 29.7658 26.1623 29.9045 26.3554C30.0443 26.5479 30.1136 26.7519 30.1136 26.966C30.1136 27.2443 30.0069 27.4866 29.7934 27.6915C29.5789 27.8966 29.3314 28 29.0482 28C28.55 28 28.1608 27.7286 27.8813 27.1855Z" fill="white"/>
<path d="M34.4624 24.4316V24.0568H36.5517V24.4316H35.7033V27.903H35.3158V24.4316H34.4624Z" fill="white"/>
<path d="M41.4244 24.4316V25.7391H42.0826C42.4082 25.7425 42.6464 25.6921 42.8005 25.5862C42.9546 25.481 43.0317 25.3145 43.0317 25.0855C43.0317 24.8568 42.9555 24.6909 42.8033 24.5872C42.6517 24.4836 42.4162 24.4316 42.0978 24.4316H41.4244ZM41.0432 24.0568H41.8013C42.2256 24.0568 42.5152 24.076 42.6706 24.1134C42.8262 24.1506 42.9599 24.2125 43.0707 24.2979C43.1824 24.3839 43.2702 24.4938 43.3334 24.6302C43.3968 24.7658 43.4293 24.9156 43.4293 25.0799C43.4293 25.4089 43.3142 25.6667 43.0843 25.8542C42.855 26.0418 42.5295 26.1278 42.1086 26.1139L43.4822 27.903H43.0097L41.642 26.1139H41.4244V27.903H41.0432V24.0568Z" fill="white"/>
<path d="M48.1809 24.0568H48.5618V26.376C48.5618 26.6155 48.5689 26.7963 48.5807 26.9176C48.5934 27.0392 48.6358 27.1565 48.7076 27.2682C48.7803 27.3812 48.8821 27.47 49.0127 27.5359C49.1442 27.6021 49.2841 27.6353 49.4354 27.6353C49.5845 27.6353 49.7163 27.608 49.8299 27.5523C49.9429 27.4966 50.0379 27.4192 50.1165 27.3193C50.1944 27.2196 50.2477 27.1095 50.2777 26.9894C50.3083 26.8702 50.3232 26.6654 50.3232 26.376V24.0568H50.6991V26.376C50.6991 26.7653 50.6601 27.0643 50.5825 27.271C50.5048 27.4784 50.368 27.651 50.1715 27.7906C49.976 27.9299 49.7454 27.9995 49.4799 27.9995C49.2677 27.9995 49.0767 27.9649 48.9075 27.8949C48.7376 27.8259 48.5962 27.7284 48.4832 27.6034C48.3697 27.4784 48.2911 27.3385 48.2468 27.1853C48.2026 27.0318 48.1809 26.7619 48.1809 26.376V24.0568Z" fill="white"/>
<path d="M59.1092 24.7692L58.8125 24.9995C58.4588 24.5566 58.0048 24.3356 57.45 24.3356C56.997 24.3356 56.6071 24.4959 56.2803 24.8175C55.9535 25.1387 55.7899 25.533 55.7899 25.9994C55.7899 26.4651 55.9498 26.8541 56.2695 27.1667C56.5894 27.4787 56.9896 27.6353 57.4704 27.6353C58.0079 27.6353 58.4557 27.4248 58.8125 27.003L59.1092 27.2332C58.922 27.4839 58.6853 27.6739 58.3987 27.8045C58.1125 27.9348 57.796 27.9995 57.45 27.9995C56.8454 27.9995 56.3502 27.8067 55.965 27.4208C55.5801 27.0355 55.387 26.5481 55.387 25.9588C55.387 25.5946 55.4764 25.2576 55.6546 24.949C55.8329 24.6401 56.0807 24.3984 56.397 24.2227C56.7138 24.0481 57.0536 23.9605 57.4178 23.9605C57.782 23.9605 58.1088 24.0305 58.3987 24.1694C58.6887 24.3087 58.9257 24.5089 59.1092 24.7692Z" fill="white"/>
<path d="M63.4202 24.4316V24.0568H65.5098V24.4316H64.6613V27.903H64.2742V24.4316H63.4202Z" fill="white"/>
<path d="M73.4315 25.9802C73.4315 25.5194 73.2731 25.1304 72.9572 24.8122C72.6403 24.4944 72.26 24.3356 71.8147 24.3356C71.3586 24.3356 70.9774 24.4953 70.672 24.8144C70.3662 25.1347 70.2137 25.5237 70.2137 25.9827C70.2137 26.4419 70.3703 26.83 70.685 27.1478C70.9993 27.4657 71.3796 27.6247 71.8259 27.6247C72.2708 27.6247 72.6502 27.4694 72.9627 27.1587C73.2759 26.8483 73.4315 26.4549 73.4315 25.9802ZM69.8154 25.9966C69.8154 25.6249 69.9036 25.2817 70.0809 24.9679C70.257 24.6538 70.4996 24.4068 70.8072 24.2285C71.1145 24.05 71.4499 23.9605 71.8116 23.9605C72.1743 23.9605 72.5119 24.0487 72.8244 24.2251C73.1379 24.4022 73.3836 24.6473 73.5621 24.9592C73.7397 25.2721 73.8292 25.6119 73.8292 25.9777C73.8292 26.3438 73.741 26.683 73.564 26.995C73.3876 27.3075 73.1444 27.5529 72.8356 27.7318C72.5264 27.9104 72.1904 27.9995 71.8277 27.9995C71.4654 27.9995 71.1284 27.9107 70.8174 27.7346C70.507 27.5576 70.2623 27.3143 70.0834 27.003C69.9045 26.6926 69.8154 26.3565 69.8154 25.9966Z" fill="white"/>
<path d="M78.9144 24.4316V25.7391H79.5729C79.8978 25.7425 80.1367 25.6921 80.2905 25.5862C80.4446 25.481 80.5217 25.3145 80.5217 25.0855C80.5217 24.8568 80.4458 24.6909 80.2936 24.5872C80.142 24.4836 79.9065 24.4316 79.5878 24.4316H78.9144ZM78.5332 24.0568H79.291C79.7159 24.0568 80.0052 24.076 80.1609 24.1134C80.3165 24.1506 80.4502 24.2125 80.5607 24.2979C80.6727 24.3839 80.7605 24.4938 80.8234 24.6302C80.8871 24.7658 80.9193 24.9156 80.9193 25.0799C80.9193 25.4089 80.8039 25.6667 80.5746 25.8542C80.345 26.0418 80.0198 26.1278 79.5989 26.1139L80.9725 27.903H80.5L79.1323 26.1139H78.9144V27.903H78.5332V24.0568Z" fill="white"/>
<path d="M87.1659 24.7532L86.5133 26.2H87.8133L87.1659 24.7532ZM87.2136 23.9012L88.9901 27.9037H88.5813L87.9828 26.5906H86.3385L85.745 27.9037H85.321L87.1183 23.9012H87.2136Z" fill="white"/>
<path d="M104.008 24.0568H106.192V24.4371H104.389V25.6373H106.176V26.0121H104.389V27.5229H106.176V27.903H104.008V24.0568Z" fill="white"/>
<path d="M121.215 24.0568H121.597V27.9036H121.215V24.0568Z" fill="white"/>
<path d="M126.396 27.903V24.0568H126.481L129.01 27.003V24.0568H129.386V27.903H129.301L126.789 24.9945V27.903H126.396Z" fill="white"/>
<path d="M134.069 27.903L134.61 24.0568H134.667L136.216 27.2119L137.754 24.0568H137.812L138.359 27.903H137.982L137.611 25.1499L136.264 27.903H136.168L134.806 25.1285L134.435 27.903H134.069Z" fill="white"/>
<path d="M146.488 25.9802C146.488 25.5194 146.329 25.1304 146.013 24.8122C145.697 24.4944 145.316 24.3356 144.871 24.3356C144.415 24.3356 144.033 24.4953 143.727 24.8144C143.422 25.1347 143.269 25.5237 143.269 25.9827C143.269 26.4419 143.426 26.83 143.741 27.1478C144.056 27.4657 144.435 27.6247 144.881 27.6247C145.326 27.6247 145.706 27.4694 146.018 27.1587C146.331 26.8483 146.488 26.4549 146.488 25.9802ZM142.871 25.9966C142.871 25.6249 142.959 25.2817 143.136 24.9679C143.312 24.6538 143.555 24.4068 143.863 24.2285C144.171 24.05 144.505 23.9605 144.868 23.9605C145.23 23.9605 145.568 24.0487 145.88 24.2251C146.194 24.4022 146.439 24.6473 146.617 24.9592C146.796 25.2721 146.885 25.6119 146.885 25.9777C146.885 26.3438 146.797 26.683 146.619 26.995C146.443 27.3075 146.201 27.5529 145.891 27.7318C145.582 27.9104 145.246 27.9995 144.883 27.9995C144.521 27.9995 144.184 27.9107 143.873 27.7346C143.562 27.5576 143.318 27.3143 143.139 27.003C142.961 26.6926 142.871 26.3565 142.871 25.9966Z" fill="white"/>
<path d="M151.954 26.0497V27.528H152.426C152.698 27.528 152.899 27.5005 153.028 27.4451C153.157 27.39 153.263 27.3043 153.343 27.1882C153.425 27.0722 153.466 26.9534 153.466 26.832C153.466 26.7101 153.443 26.6036 153.397 26.5102C153.351 26.4173 153.283 26.3353 153.193 26.2641C153.102 26.1923 152.995 26.1391 152.869 26.1032C152.744 26.0676 152.509 26.0497 152.166 26.0497H151.954ZM151.954 24.4317V25.6638H152.171C152.504 25.6638 152.752 25.6105 152.915 25.5035C153.077 25.3961 153.159 25.2283 153.159 24.9996C153.159 24.6208 152.903 24.4317 152.395 24.4317H151.954ZM151.578 24.057H152.331C152.73 24.057 153.034 24.1384 153.24 24.3005C153.447 24.463 153.551 24.6967 153.551 24.9996C153.551 25.1674 153.509 25.3221 153.425 25.4632C153.343 25.6043 153.222 25.7176 153.062 25.8033C153.324 25.8894 153.523 26.0178 153.659 26.1886C153.795 26.3607 153.863 26.5643 153.863 26.7995C153.863 27.1174 153.748 27.3807 153.519 27.5896C153.289 27.7985 152.992 27.9034 152.628 27.9034H151.578V24.057Z" fill="white"/>
<path d="M158.482 24.0568H158.863V27.9036H158.482V24.0568Z" fill="white"/>
<path d="M163.657 24.0568H164.045V27.5331H165.508V27.903H163.657V24.0568Z" fill="white"/>
<path d="M169.979 24.0568H170.36V27.9036H169.979V24.0568Z" fill="white"/>
<path d="M176.665 24.7532L176.013 26.2H177.312L176.665 24.7532ZM176.713 23.9012L178.489 27.9037H178.081L177.482 26.5906H175.838L175.244 27.9037H174.82L176.617 23.9012H176.713Z" fill="white"/>
<path d="M183.405 24.4316V25.7391H184.062C184.387 25.7425 184.627 25.6921 184.781 25.5862C184.935 25.481 185.011 25.3145 185.011 25.0855C185.011 24.8568 184.935 24.6909 184.784 24.5872C184.631 24.4836 184.396 24.4316 184.078 24.4316H183.405ZM183.023 24.0568H183.781C184.206 24.0568 184.495 24.076 184.651 24.1134C184.806 24.1506 184.94 24.2125 185.051 24.2979C185.163 24.3839 185.25 24.4938 185.314 24.6302C185.377 24.7658 185.409 24.9156 185.409 25.0799C185.409 25.4089 185.294 25.6667 185.065 25.8542C184.835 26.0418 184.509 26.1278 184.088 26.1139L185.462 27.903H184.99L183.622 26.1139H183.405V27.903H183.023V24.0568Z" fill="white"/>
<path d="M190.091 24.0568H190.473V27.9036H190.091V24.0568Z" fill="white"/>
<path d="M196.778 24.7532L196.126 26.2H197.425L196.778 24.7532ZM196.826 23.9012L198.602 27.9037H198.194L197.595 26.5906H195.951L195.357 27.9037H194.933L196.73 23.9012H196.826Z" fill="white"/>
</g>
</g>
<defs>
<clipPath id="clip0_109_4260">
<rect width="202" height="28" fill="white"/>
</clipPath>
</defs>
</svg>
